Coordinates
datacolumns 6
datarows 178
range 25.04 26.81
inDegrees=yes
Units are S.I. units (second, meters, Newtons, ...)
If the header above contains a line with 'inDegrees', this indicates whether rotational values are in degrees (yes) or radians (no).
endheader
time	foot_tx	hip_flexion_r	knee_angle_r	ankle_angle_r	lumbar
25.04	0.1742587	56.55484599	-69.56917608	2.46701408	-23.19317258
25.05	0.1742148	56.57066275	-69.56004741	2.46336281	-23.30146506
25.06	0.1741565	56.59065462	-69.55263116	2.46165439	-23.41960231
25.07	0.17410352	56.61063883	-69.5428488	2.45884149	-23.55203748
25.08	0.1740452	56.6342773	-69.53287122	2.45657717	-23.69486276
25.09	0.17398619	56.66128268	-69.52165201	2.45408848	-23.84848134
25.1	0.17392429	56.69361374	-69.50982798	2.45175598	-24.01098444
25.11	0.17386033	56.73278102	-69.49743829	2.44943937	-24.1811911
25.12	0.17379624	56.78042859	-69.48458254	2.44694761	-24.35781732
25.13	0.17373138	56.83801936	-69.47167366	2.44444079	-24.53993393
25.14	0.17366115	56.906878	-69.4593845	2.44257757	-24.72674124
25.15	0.17358511	56.98673979	-69.44779208	2.44168598	-24.91881203
25.16	0.17350826	57.07562165	-69.43802591	2.44262537	-25.11754538
25.17	0.17344087	57.17094288	-69.4269072	2.44335415	-25.32611204
25.18	0.17337719	57.27270164	-69.41543145	2.44505382	-25.54435387
25.19	0.17331627	57.3810989	-69.40483615	2.44871255	-25.77166932
25.2	0.17325884	57.49486916	-69.39342626	2.45338697	-26.00994049
25.21	0.17320658	57.61768912	-69.3822903	2.45941664	-26.25509731
25.22	0.17315418	57.74966587	-69.37122943	2.46680554	-26.5078908
25.23	0.17310282	57.89565592	-69.36034139	2.47500636	-26.76363929
25.24	0.1730493	58.05830179	-69.34961221	2.48380513	-27.0203869
25.25	0.17299481	58.2412212	-69.33904693	2.49280517	-27.27449548
25.26	0.17293427	58.44454411	-69.32844126	2.50233859	-27.52635793
25.27	0.1728725	58.66683698	-69.31723155	2.51235106	-27.77692889
25.28	0.17281306	58.9200471	-69.30573341	2.52205325	-28.01225293
25.29	0.17274932	59.18111747	-69.29283655	2.53387891	-28.25841613
25.3	0.17267124	59.4232308	-69.27860729	2.55121067	-28.54506205
25.31	0.17260356	59.70828653	-69.26382549	2.5675359	-28.80293243
25.32	0.1725353	60.00343789	-69.24769507	2.58634192	-29.06922236
25.33	0.17246813	60.30991202	-69.22969396	2.60712845	-29.34242088
25.34	0.17240234	60.62909987	-69.20953159	2.62971986	-29.62094336
25.35	0.17233847	60.98543622	-69.18944685	2.65329011	-29.87668938
25.36	0.17227689	61.32608156	-69.16408974	2.67996639	-30.16829127
25.37	0.17220891	61.71931052	-69.14036496	2.70799433	-30.41822422
25.38	0.17214049	62.07849371	-69.11099049	2.74141983	-30.72199301
25.39	0.17205075	62.5046596	-69.08414802	2.77734599	-30.96735702
25.4	0.17195429	62.91200625	-69.05322114	2.81938028	-31.24833866
25.41	0.17184313	63.32837485	-69.02053949	2.86724444	-31.53439026
25.42	0.17172061	63.7518139	-68.98631123	2.92127627	-31.8271679
25.43	0.17158597	64.18606215	-68.95066364	2.98153727	-32.12309294
25.44	0.17144492	64.6336747	-68.91295329	3.04700079	-32.4194749
25.45	0.17129853	65.10002769	-68.87322508	3.11715082	-32.71058442
25.46	0.1711487	65.58714537	-68.8315061	3.19130107	-32.99348133
25.47	0.17099564	66.10052162	-68.78718277	3.26855256	-33.26213598
25.48	0.17084313	66.64387595	-68.73965796	3.34763507	-33.51135172
25.49	0.17069228	67.22238039	-68.68875595	3.42801708	-33.73396393
25.5	0.17054694	67.83645517	-68.63415265	3.50968467	-33.92653396
25.51	0.17040912	68.48242672	-68.57541759	3.59395733	-34.08897481
25.52	0.17028785	69.15368281	-68.51191341	3.68209786	-34.22285999
25.53	0.1701883	69.84070941	-68.44296776	3.77621206	-34.33386874
25.54	0.17010376	70.54281187	-68.36726175	3.8772183	-34.4198705
25.55	0.17004078	71.26025752	-68.28408186	3.98498694	-34.47764708
25.56	0.17001152	72.00491273	-68.18929673	4.09610032	-34.491739
25.57	0.17000709	72.76978241	-68.08472921	4.21295273	-34.46821699
25.58	0.17002099	73.56384909	-67.96540434	4.33299778	-34.39437887
25.59	0.17005121	74.38347483	-67.82837174	4.45526236	-34.27165036
25.6	0.17008997	75.22522219	-67.67169261	4.5797342	-34.10031016
25.61	0.17013605	76.08471268	-67.49189864	4.705145	-33.88189534
25.62	0.17018567	76.95499904	-67.28515887	4.83049682	-33.62066816
25.63	0.170241	77.83184669	-67.05027743	4.95547493	-33.31780393
25.64	0.17031102	78.70090768	-66.78521294	5.07937372	-32.98752303
25.65	0.17039148	79.55927664	-66.49166442	5.20288497	-32.63102221
25.66	0.17048456	80.39796105	-66.17196009	5.32677388	-32.25732798
25.67	0.17058887	81.20722659	-65.83020672	5.45264327	-31.87657506
25.68	0.17070075	81.98302248	-65.4715897	5.58209564	-31.49209169
25.69	0.17081743	82.72214153	-65.10100916	5.71639536	-31.10585331
25.7	0.17093608	83.41805534	-64.72283572	5.85679102	-30.72354948
25.71	0.17105073	84.0675928	-64.34131944	6.00445734	-30.3464895
25.72	0.17115803	84.66541152	-63.95868491	6.1595679	-29.97834308
25.73	0.17125414	85.20331544	-63.57614875	6.32204592	-29.6262791
25.74	0.17133682	85.67706514	-63.19395937	6.4909692	-29.2929571
25.75	0.17140807	86.07501061	-62.81209154	6.66553141	-28.99106963
25.76	0.17146693	86.3946558	-62.42977927	6.84414137	-28.72159529
25.77	0.17151607	86.62831845	-62.0472175	7.02606391	-28.49298686
25.78	0.17155731	86.77446566	-61.66406981	7.21008192	-28.30603712
25.79	0.17158972	86.83559636	-61.2801063	7.39523171	-28.15663287
25.8	0.17162081	86.81109039	-60.89262196	7.57952326	-28.04458409
25.81	0.17164689	86.70747974	-60.49996957	7.76185845	-27.96076168
25.82	0.1716687	86.53537653	-60.09909524	7.94038751	-27.89099782
25.83	0.17168779	86.29432095	-59.68625483	8.11356695	-27.83502207
25.84	0.17172148	85.99589743	-59.25718734	8.27813108	-27.77765803
25.85	0.17176076	85.64565247	-58.8104247	8.43412556	-27.71229639
25.86	0.17181638	85.25165854	-58.34293508	8.5795632	-27.62950081
25.87	0.1718913	84.81599829	-57.85399204	8.71415719	-27.52755693
25.88	0.17199346	84.33999068	-57.34135221	8.83658522	-27.40705805
25.89	0.17213266	83.82418657	-56.80356836	8.9454331	-27.27003345
25.9	0.1723247	83.27032396	-56.23887586	9.03835027	-27.11739479
25.91	0.17257879	82.67516605	-55.64716744	9.11463192	-26.95637187
25.92	0.17291132	82.0429224	-55.02745705	9.17175435	-26.78512464
25.93	0.1733189	81.3699155	-54.38275337	9.21133427	-26.6110944
25.94	0.173799	80.65707008	-53.71514293	9.23384872	-26.43643995
25.95	0.17433413	79.90416491	-53.02923599	9.24229106	-26.26457268
25.96	0.17491234	79.11934931	-52.32857358	9.23797089	-26.08753527
25.97	0.17549332	78.29795603	-51.62080453	9.22752312	-25.91424426
25.98	0.17607191	77.45224601	-50.90978614	9.21195111	-25.73154133
25.99	0.17661677	76.57950721	-50.20043968	9.19589413	-25.54438941
26	0.17713254	75.68909294	-49.4957725	9.17974572	-25.34384963
26.01	0.17760463	74.77883166	-48.7973092	9.1656231	-25.13288367
26.02	0.17804629	73.85671948	-48.10411272	9.15117063	-24.90296853
26.03	0.17844892	72.91782516	-47.41489712	9.13680438	-24.66064084
26.04	0.17881934	71.96575031	-46.72718198	9.12046049	-24.401981
26.05	0.17916468	71.00475399	-46.03815081	9.09988976	-24.12260089
26.06	0.17948901	70.03502203	-45.34724486	9.07477881	-23.82288715
26.07	0.17979751	69.05678648	-44.65535475	9.0457104	-23.50315542
26.08	0.18009142	68.06601559	-43.96435397	9.01463455	-23.16837629
26.09	0.18037249	67.06032158	-43.27468995	8.98261735	-22.82155513
26.1	0.18064394	66.04092287	-42.58610211	8.94959047	-22.46143138
26.11	0.18090225	65.00806039	-41.89772784	8.91555898	-22.08848454
26.12	0.18115145	63.96435359	-41.20746788	8.87901587	-21.70041644
26.13	0.18137705	62.91133399	-40.51434962	8.84017613	-21.29685207
26.14	0.18158947	61.84768471	-39.81488193	8.79671269	-20.87917544
26.15	0.18178245	60.77001864	-39.10680671	8.74818361	-20.45219181
26.16	0.18195809	59.67983041	-38.38651637	8.69250028	-20.01427093
26.17	0.18211725	58.57185132	-37.65280329	8.62979011	-19.57098857
26.18	0.18225879	57.44261221	-36.90512592	8.56030625	-19.12804721
26.19	0.18238549	56.28716102	-36.1460972	8.48577851	-18.69262191
26.2	0.18250446	55.11074742	-35.37490362	8.40514191	-18.25940286
26.21	0.18261038	53.91199771	-34.59549203	8.32119313	-17.83037762
26.22	0.18270775	52.69174087	-33.80970906	8.23464012	-17.40583564
26.23	0.18280234	51.45468451	-33.01708813	8.14458668	-16.98235399
26.24	0.18289676	50.19744003	-32.2186404	8.05148578	-16.56566826
26.25	0.18299663	48.93168874	-31.41314118	7.95354457	-16.14532082
26.26	0.18309374	47.66046578	-30.60136185	7.85197583	-15.71675616
26.27	0.18320227	46.38088093	-29.78527201	7.7462102	-15.29215074
26.28	0.18331055	45.10233271	-28.96408672	7.63662118	-14.85938411
26.29	0.18342753	43.82459597	-28.13923701	7.52258484	-14.42612511
26.3	0.18354861	42.55232997	-27.31236217	7.40477859	-13.99018425
26.31	0.18367638	41.28611785	-26.48401262	7.28313889	-13.5547535
26.32	0.1837977	40.02763186	-25.66045635	7.16142758	-13.12144134
26.33	0.18392243	38.78328112	-24.84096381	7.03772304	-12.68648732
26.34	0.18404884	37.56132616	-24.02726076	6.91210602	-12.242195
26.35	0.18416986	36.35974801	-23.22398273	6.78719874	-11.79567116
26.36	0.18428707	35.18467558	-22.43173408	6.66252722	-11.34087977
26.37	0.18439946	34.04574845	-21.6518522	6.53783126	-10.86964624
26.38	0.18451616	32.93966058	-20.88396913	6.41235498	-10.3874001
26.39	0.18463169	31.86776071	-20.13115996	6.28813721	-9.89267537
26.4	0.18475031	30.82900032	-19.39229143	6.16426852	-9.3878983
26.41	0.18486065	29.82515251	-18.66833285	6.04211936	-8.87020067
26.42	0.18496021	28.85055065	-17.95844236	5.92182522	-8.34534957
26.43	0.18504894	27.90718324	-17.26187425	5.80271521	-7.81219206
26.44	0.18511527	26.99174842	-16.57977739	5.6861368	-7.27465321
26.45	0.18516385	26.10254548	-15.91251922	5.57198527	-6.73690613
26.46	0.18519519	25.24163312	-15.26199283	5.46086224	-6.19862323
26.47	0.18521301	24.40700587	-14.63153528	5.35408998	-5.6659804
26.48	0.18521916	23.59993018	-14.02407592	5.25303347	-5.13968155
26.49	0.1852141	22.82198206	-13.44071452	5.15794378	-4.62014051
26.5	0.18520065	22.0703864	-12.88286412	5.06976745	-4.11149695
26.51	0.18518022	21.34421632	-12.3513216	4.98880895	-3.61597868
26.52	0.18515525	20.64292338	-11.84662171	4.91521418	-3.13520205
26.53	0.18512788	19.96887772	-11.36857755	4.84846055	-2.66768257
26.54	0.18509982	19.32151207	-10.91769798	4.78861419	-2.21538679
26.55	0.18507098	18.7014229	-10.49375984	4.73531803	-1.77873615
26.56	0.18504098	18.11063118	-10.0955856	4.6876773	-1.35622405
26.57	0.18500396	17.55011826	-9.72224555	4.64521087	-0.94683471
26.58	0.18495919	17.0179809	-9.3724175	4.60763512	-0.55192397
26.59	0.18490156	16.51300121	-9.04395745	4.57432938	-0.17133316
26.6	0.18482969	16.03409382	-8.7349519	4.54480344	0.19555549
26.61	0.18474109	15.57940399	-8.4436353	4.51873353	0.54875665
26.62	0.18463692	15.14794134	-8.16869477	4.49563779	0.88806942
26.63	0.18451739	14.73834543	-7.90962121	4.47520902	1.21168333
26.64	0.18438306	14.3471399	-7.66605491	4.45748359	1.5164301
26.65	0.18423103	13.97406377	-7.43563611	4.44156149	1.80339519
26.66	0.18406774	13.61536608	-7.219421	4.42794081	2.06822823
26.67	0.1838915	13.27057402	-7.01437903	4.41520354	2.31276717
26.68	0.18370393	12.9368086	-6.8208655	4.4038294	2.53435834
26.69	0.18350451	12.61530642	-6.63726174	4.39283839	2.73558996
26.7	0.1832961	12.30547392	-6.4635094	4.38213778	2.916219
26.71	0.18308011	12.00892776	-6.29869449	4.37126458	3.07930403
26.72	0.18285882	11.72663146	-6.14311196	4.36035502	3.22667855
26.73	0.18263615	11.46046462	-5.99499819	4.34880276	3.3634982
26.74	0.18241459	11.21207297	-5.85356665	4.33626054	3.49310927
26.75	0.18219941	10.98372969	-5.72020561	4.3230701	3.61790096
26.76	0.18198636	10.7741342	-5.59299882	4.3090936	3.74029713
26.77	0.18178355	10.60971047	-5.47680834	4.29422212	3.88628031
26.78	0.18158401	10.42060343	-5.36202753	4.27890623	3.98225047
26.79	0.18139645	10.28648485	-5.25920681	4.26300519	4.11580981
26.8	0.18122287	10.16094053	-5.16416231	4.2476674	4.23656243
26.81	0.18106347	10.04835461	-5.07806473	4.23330154	4.34963952
